# xmcd
#
# Track frame offsets:
#	150
#	11534
#	41746
#	69008
#	117964
#	159688
#
# Disc length: 2378 seconds
#
# Revision: 1
# Processed by: cddbd v1.5.2PL0 Copyright (c) Steve Scherf et al.
# Submitted via: audiograbber 1.83.01
#
DISCID=43094806
DTITLE=Grateful Dead - 79-12-03 Uptown Theatre, Chicago IL
DYEAR=1900
DGENRE=
TTITLE0=Space
TTITLE1=Lost Sailor
TTITLE2=Saint Of Circumstance
TTITLE3=Wharf Rat
TTITLE4=Truckin'
TTITLE5=Johnny B Goode
EXTD=
EXTT0=
EXTT1=
EXTT2=
EXTT3=
EXTT4=
EXTT5=
PLAYORDER=
